Coordinates
version=1
nRows=49
nColumns=12
inDegrees=yes

Units are S.I. units (second, meters, Newtons, ...)
Angles are in degrees

endheader
time	SC_y	SC_z	SC_x	AC_y	AC_z	AC_x	GH_y	GH_z	GH_yy	EL_x	PS_y
       0.0              -46.22          26.31          62.41          57.85         -5.995          16.73         -66.33          47.53         -153.3          91.83          50.55
   0.02585              -46.22          26.31          62.41          57.85         -5.994          16.73         -66.32          47.52         -153.2          91.82          50.55
   0.05171              -46.21          26.32          62.41          57.85         -5.992          16.72         -66.31          47.52         -153.2          91.81          50.54
   0.07756              -46.21          26.32          62.41          57.85          -5.99          16.72          -66.3           47.5         -153.2          91.79          50.54
    0.1034              -46.21          26.32          62.41          57.85         -5.988          16.72         -66.28          47.49         -153.2          91.78          50.53
    0.1293              -46.21          26.32          62.41          57.86         -5.986          16.71         -66.27          47.48         -153.2          91.76          50.52
    0.1551              -46.21          26.32          62.41          57.86         -5.983          16.71         -66.25          47.47         -153.2          91.74          50.52
     0.181               -46.2          26.32          62.41          57.86         -5.981           16.7         -66.24          47.46         -153.2          91.73          50.51
    0.2068               -46.2          26.33          62.41          57.86         -5.978           16.7         -66.22          47.44         -153.2          91.71           50.5
    0.2327               -46.2          26.33          62.42          57.87         -5.976          16.69          -66.2          47.43         -153.1          91.69          50.49
    0.2585               -46.2          26.33          62.42          57.87         -5.973          16.69         -66.18          47.41         -153.1          91.66          50.48
    0.2844              -46.19          26.33          62.42          57.87         -5.969          16.68         -66.16          47.39         -153.1          91.64          50.47
    0.3102              -46.19          26.34          62.42          57.87         -5.966          16.68         -66.13          47.37         -153.1          91.61          50.46
    0.3361              -46.19          26.34          62.42          57.88         -5.962          16.67         -66.11          47.35         -153.1          91.59          50.45
    0.3619              -46.18          26.34          62.43          57.88         -5.958          16.66         -66.08          47.33         -153.0          91.56          50.44
    0.3878              -46.18          26.34          62.43          57.88         -5.954          16.65         -66.05          47.31         -153.0          91.52          50.42
    0.4136              -46.17          26.35          62.43          57.89         -5.949          16.64         -66.01          47.28         -153.0          91.49          50.41
    0.4395              -46.17          26.35          62.43          57.89         -5.944          16.63         -65.98          47.25         -152.9          91.45          50.39
    0.4653              -46.16          26.36          62.44           57.9         -5.938          16.62         -65.94          47.22         -152.9           91.4          50.37
    0.4912              -46.16          26.36          62.44           57.9         -5.932          16.61         -65.89          47.19         -152.9          91.36          50.35
    0.5171              -46.15          26.37          62.45          57.91         -5.925           16.6         -65.85          47.15         -152.8          91.31          50.33
    0.5429              -46.14          26.37          62.45          57.91         -5.917          16.58         -65.79          47.11         -152.8          91.25          50.31
    0.5688              -46.14          26.38          62.45          57.92         -5.909          16.57         -65.74          47.07         -152.7          91.19          50.28
    0.5946              -46.13          26.39          62.46          57.93           -5.9          16.55         -65.67          47.02         -152.7          91.12          50.25
    0.6205              -46.12          26.39          62.47          57.94         -5.889          16.53          -65.6          46.96         -152.6          91.04          50.22
    0.6463              -46.11           26.4          62.47          57.95         -5.878          16.51         -65.52           46.9         -152.6          90.96          50.18
    0.6722               -46.1          26.41          62.48          57.96         -5.865          16.49         -65.43          46.83         -152.5          90.86          50.14
     0.698              -46.08          26.42          62.49          57.97         -5.851          16.46         -65.33          46.75         -152.4          90.75           50.1
    0.7239              -46.07          26.44           62.5          57.98         -5.834          16.43         -65.22          46.66         -152.3          90.63          50.05
    0.7497              -46.05          26.45          62.51           58.0         -5.816          16.39         -65.09          46.56         -152.2          90.49          49.99
    0.7756              -46.03          26.47          62.52          58.02         -5.795          16.35         -64.95          46.44         -152.1          90.33          49.92
    0.8014              -46.01          26.48          62.53          58.04         -5.771          16.31         -64.78          46.31         -151.9          90.15          49.84
    0.8273              -45.98           26.5          62.55          58.06         -5.743          16.25         -64.58          46.16         -151.7          89.94          49.76
    0.8531              -45.95          26.53          62.57          58.09          -5.71          16.19         -64.36          45.98         -151.6           89.7          49.65
     0.879              -45.92          26.56          62.59          58.12         -5.672          16.12         -64.09          45.78         -151.3          89.42          49.53
    0.9048              -45.88          26.59          62.62          58.16         -5.627          16.04         -63.78          45.53         -151.1          89.08          49.39
    0.9307              -45.83          26.63          62.65           58.2         -5.574          15.93         -63.41          45.24         -150.7          88.68          49.23
    0.9565              -45.77          26.68          62.69          58.26          -5.51          15.81         -62.97          44.89         -150.4           88.2          49.02
    0.9824              -45.69          26.74          62.73          58.32         -5.432          15.67         -62.43          44.47         -149.9          87.63          48.78
     1.008              -45.61          26.81          62.78           58.4         -5.338          15.49         -61.78          43.96         -149.3          86.92          48.48
     1.034               -45.5           26.9          62.85           58.5         -5.221          15.27         -60.97          43.33         -148.6          86.05          48.12
      1.06              -45.36          27.01          62.94          58.62         -5.076          14.99         -59.96          42.54         -147.8          84.96          47.66
     1.086              -45.19          27.15          63.04          58.78         -4.893          14.65         -58.69          41.54         -146.7          83.59          47.08
     1.112              -44.98          27.33          63.18          58.98          -4.66          14.21         -57.08          40.27         -145.3          81.85          46.35
     1.138               -44.7          27.55          63.35          59.23         -4.362          13.64         -55.01          38.65         -143.5          79.62          45.41
     1.163              -44.35          27.84          63.57          59.55         -3.979          12.92         -52.36          36.57         -141.2          76.76          44.21
     1.189              -43.89          28.21          63.85          59.96          -3.49           12.0         -48.98          33.92         -138.3          73.11          42.67
     1.215              -43.32          28.68          64.21          60.48         -2.876          10.84         -44.72          30.58         -134.7          68.51          40.73
     1.241              -42.63          29.25          64.64          61.11         -2.127           9.42         -39.53          26.51         -130.2          62.92          38.38
